{
	"asset":{
		"generator":"Khronos glTF Blender I/O v3.6.27",
		"version":"2.0"
	},
	"extensionsUsed":[
		"KHR_materials_specular",
		"KHR_materials_ior"
	],
	"scene":0,
	"scenes":[
		{
			"name":"Scene",
			"nodes":[
				0
			]
		}
	],
	"nodes":[
		{
			"mesh":0,
			"name":"TQ_ARD-node",
			"rotation":[
				0,
				-0.7071067094802856,
				0,
				0.7071068286895752
			],
			"translation":[
				0,
				0.049996692687273026,
				0
			]
		}
	],
	"materials":[
		{
			"doubleSided":true,
			"extensions":{
				"KHR_materials_specular":{
					"specularColorFactor":[
						0,
						0,
						0
					]
				},
				"KHR_materials_ior":{
					"ior":0
				}
			},
			"name":"TQ_ARD_front",
			"pbrMetallicRoughness":{
				"baseColorTexture":{
					"index":0
				},
				"metallicFactor":0,
				"roughnessFactor":0.5
			}
		},
		{
			"doubleSided":true,
			"extensions":{
				"KHR_materials_specular":{
					"specularColorFactor":[
						0,
						0,
						0
					]
				},
				"KHR_materials_ior":{
					"ior":0
				}
			},
			"name":"TQ_ARD_back",
			"pbrMetallicRoughness":{
				"baseColorFactor":[
					0.996078372001648,
					0.9019607901573181,
					0.6627451181411743,
					1
				],
				"metallicFactor":0,
				"roughnessFactor":0.5
			}
		},
		{
			"doubleSided":true,
			"extensions":{
				"KHR_materials_specular":{
					"specularColorFactor":[
						0,
						0,
						0
					]
				},
				"KHR_materials_ior":{
					"ior":0
				}
			},
			"name":"TQ_ARD_edge",
			"pbrMetallicRoughness":{
				"baseColorTexture":{
					"index":1
				},
				"metallicFactor":0,
				"roughnessFactor":0.5
			}
		}
	],
	"meshes":[
		{
			"name":"TQ_ARD-geom",
			"primitives":[
				{
					"attributes":{
						"POSITION":0,
						"NORMAL":1,
						"TEXCOORD_0":2
					},
					"indices":3,
					"material":0
				},
				{
					"attributes":{
						"POSITION":4,
						"NORMAL":5,
						"TEXCOORD_0":6
					},
					"indices":7,
					"material":1
				},
				{
					"attributes":{
						"POSITION":8,
						"NORMAL":9,
						"TEXCOORD_0":10
					},
					"indices":11,
					"material":2
				}
			]
		}
	],
	"textures":[
		{
			"sampler":0,
			"source":0
		},
		{
			"sampler":0,
			"source":1
		}
	],
	"images":[
		{
			"bufferView":4,
			"mimeType":"image/jpeg",
			"name":"1"
		},
		{
			"bufferView":13,
			"mimeType":"image/png",
			"name":"TQ_ARD-I1.png"
		}
	],
	"accessors":[
		{
			"bufferView":0,
			"componentType":5126,
			"count":896,
			"max":[
				0.17542588710784912,
				0.05268922820687294,
				0.13730496168136597
			],
			"min":[
				-0.17474834620952606,
				-0.0464872382581234,
				-0.09628336876630783
			],
			"type":"VEC3"
		},
		{
			"bufferView":1,
			"componentType":5126,
			"count":896,
			"type":"VEC3"
		},
		{
			"bufferView":2,
			"componentType":5126,
			"count":896,
			"type":"VEC2"
		},
		{
			"bufferView":3,
			"componentType":5123,
			"count":2517,
			"type":"SCALAR"
		},
		{
			"bufferView":5,
			"componentType":5126,
			"count":781,
			"max":[
				0.17337346076965332,
				0.05110170692205429,
				0.13574917614459991
			],
			"min":[
				-0.17269590497016907,
				-0.0444348007440567,
				-0.09628336876630783
			],
			"type":"VEC3"
		},
		{
			"bufferView":6,
			"componentType":5126,
			"count":781,
			"type":"VEC3"
		},
		{
			"bufferView":7,
			"componentType":5126,
			"count":781,
			"type":"VEC2"
		},
		{
			"bufferView":8,
			"componentType":5123,
			"count":2517,
			"type":"SCALAR"
		},
		{
			"bufferView":9,
			"componentType":5126,
			"count":1525,
			"max":[
				0.17542587220668793,
				0.05268922820687294,
				0.13730494678020477
			],
			"min":[
				-0.17474834620952606,
				-0.0464872382581234,
				-0.09628336876630783
			],
			"type":"VEC3"
		},
		{
			"bufferView":10,
			"componentType":5126,
			"count":1525,
			"type":"VEC3"
		},
		{
			"bufferView":11,
			"componentType":5126,
			"count":1525,
			"type":"VEC2"
		},
		{
			"bufferView":12,
			"componentType":5123,
			"count":3270,
			"type":"SCALAR"
		}
	],
	"bufferViews":[
		{
			"buffer":0,
			"byteLength":10752,
			"byteOffset":0,
			"target":34962
		},
		{
			"buffer":0,
			"byteLength":10752,
			"byteOffset":10752,
			"target":34962
		},
		{
			"buffer":0,
			"byteLength":7168,
			"byteOffset":21504,
			"target":34962
		},
		{
			"buffer":0,
			"byteLength":5034,
			"byteOffset":28672,
			"target":34963
		},
		{
			"buffer":0,
			"byteLength":1019993,
			"byteOffset":33708
		},
		{
			"buffer":0,
			"byteLength":9372,
			"byteOffset":1053704,
			"target":34962
		},
		{
			"buffer":0,
			"byteLength":9372,
			"byteOffset":1063076,
			"target":34962
		},
		{
			"buffer":0,
			"byteLength":6248,
			"byteOffset":1072448,
			"target":34962
		},
		{
			"buffer":0,
			"byteLength":5034,
			"byteOffset":1078696,
			"target":34963
		},
		{
			"buffer":0,
			"byteLength":18300,
			"byteOffset":1083732,
			"target":34962
		},
		{
			"buffer":0,
			"byteLength":18300,
			"byteOffset":1102032,
			"target":34962
		},
		{
			"buffer":0,
			"byteLength":12200,
			"byteOffset":1120332,
			"target":34962
		},
		{
			"buffer":0,
			"byteLength":6540,
			"byteOffset":1132532,
			"target":34963
		},
		{
			"buffer":0,
			"byteLength":767,
			"byteOffset":1139072
		}
	],
	"samplers":[
		{
			"magFilter":9729,
			"minFilter":9987
		}
	],
	"buffers":[
		{
			"byteLength":1139840,
			"uri":"data:application/octet-stream;base64,"
		}
	]
}
